#!OML:ASF H:\ManfredETheater\Project 1\Capture day 1\Session 1\subject.ASF
:FULLY-SPECIFIED
:DEGREES
1156
root 1.71373 17.8038 -4.5082 -6.51682 10.7887 -2.80016
lowerback 10.979 2.70414 5.28499
upperback -0.313105 4.42914 2.16336
thorax -6.26636 2.03888 -1.39956
lowerneck -12.4594 -7.5111 -8.07184
upperneck 24.9449 -9.883 4.44994
head 10.7077 -4.76613 1.63104
rclavicle 5.91136e-014 6.36111e-015
rhumerus -35.1815 1.19867 -57.0955
rradius 50.9477
rwrist -0.379487
rhand -7.53646 -9.86664
rfingers 7.12502
rthumb 18.3548 -39.0207
lclavicle 5.91136e-014 6.36111e-015
lhumerus -45.1783 12.6179 59.418
lradius 68.4812
lwrist -7.55138
lhand -14.7587 1.72739
lfingers 7.12502
lthumb 11.3975 31.3976
rfemur -1.99846 -8.23082 28.1495
rtibia 29.3322
rfoot -16.9603 -2.48199
rtoes 22.6793
lfemur -73.1041 0.974925 -18.1702
ltibia 78.6659
lfoot 33.5398 -24.0589
ltoes 15.621
1157
root 1.73562 17.8016 -4.5212 -6.32668 10.4328 -2.75913
lowerback 11.0443 2.71672 5.31298
upperback -0.362348 4.45887 2.19391
thorax -6.35453 2.04945 -1.39288
lowerneck -12.5155 -7.42269 -7.9594
upperneck 24.9436 -9.74519 4.32323
head 10.6943 -4.70659 1.58611
rclavicle 9.31803e-015 -3.97569e-015
rhumerus -34.8013 1.6912 -57.2989
rradius 51.5599
rwrist -0.562082
rhand -7.66782 -9.36205
rfingers 7.12502
rthumb 18.2284 -38.5279
lclavicle 9.31803e-015 -3.97569e-015
lhumerus -45.3975 12.6789 59.2365
lradius 68.3381
lwrist -7.62673
lhand -14.8813 1.84872
lfingers 7.12502
lthumb 11.2792 31.5255
rfemur -2.35125 -8.12414 28.0474
rtibia 29.599
rfoot -17.0012 -2.19727
rtoes 22.7201
lfemur -72.7459 0.714783 -17.6637
ltibia 80.2253
lfoot 33.2444 -24.2029
ltoes 15.7205
1158
root 1.75624 17.8009 -4.53411 -6.1337 10.1024 -2.72484
lowerback 11.1072 2.71691 5.32203
upperback -0.413858 4.46999 2.22794
thorax -6.44656 2.05146 -1.36918
lowerneck -12.5758 -7.33167 -7.84378
upperneck 24.9501 -9.60658 4.20321
head 10.6851 -4.64552 1.54292
rclavicle -1.21756e-014 7.95139e-015
rhumerus -34.4554 2.15843 -57.4862
rradius 52.193
rwrist -0.74319
rhand -7.81675 -8.8595
rfingers 7.12502
rthumb 18.0852 -38.0387
lclavicle -1.21756e-014 7.95139e-015
lhumerus -45.5848 12.7059 59.0827
lradius 68.1978
lwrist -7.70641
lhand -14.9486 1.94083
lfingers 7.12502
lthumb 11.2144 31.6211
rfemur -2.68812 -8.02208 27.9554
rtibia 29.8191
rfoot -17.0203 -1.92505
rtoes 22.7647
lfemur -72.3664 0.480269 -17.1636
ltibia 81.7557
lfoot 32.7937 -24.3551
ltoes 15.7224
1159
root 1.77552 17.8016 -4.54688 -5.93906 9.80031 -2.69906
lowerback 11.1659 2.7049 5.31449
upperback -0.465387 4.46275 2.26553
thorax -6.5389 2.04514 -1.32944
lowerneck -12.6421 -7.23971 -7.72685
upperneck 24.9626 -9.46956 4.09237
head 10.6801 -4.58389 1.50225
rclavicle 1.31695e-014 -1.98785e-014
rhumerus -34.1465 2.59436 -57.6579
rradius 52.8473
rwrist -0.925184
rhand -7.98505 -8.37146
rfingers 7.12502
rthumb 17.9232 -37.5656
lclavicle 1.31695e-014 -1.98785e-014
lhumerus -45.7349 12.7006 58.9591
lradius 68.0619
lwrist -7.78751
lhand -14.9653 2.00495
lfingers 7.12502
lthumb 11.1982 31.6861
rfemur -3.00869 -7.92114 27.8775
rtibia 29.9948
rfoot -17.0211 -1.67527
rtoes 22.8101
lfemur -71.9607 0.273805 -16.6715
ltibia 83.2529
lfoot 32.1552 -24.4939
ltoes 15.5774
1160
root 1.79344 17.8034 -4.55945 -5.74377 9.52817 -2.68296
lowerback 11.219 2.68126 5.2928
upperback -0.51476 4.43799 2.30653
thorax -6.62808 2.03099 -1.27507
lowerneck -12.7151 -7.14825 -7.60972
upperneck 24.9788 -9.33616 3.99234
head 10.679 -4.52254 1.46456
rclavicle -5.90142e-014 -3.18055e-015
rhumerus -33.8771 2.99419 -57.8149
rradius 53.523
rwrist -1.10901
rhand -8.17372 -7.90869
rfingers 7.12502
rthumb 17.7417 -37.1193
lclavicle -5.90142e-014 -3.18055e-015
lhumerus -45.8428 12.6645 58.8673
lradius 67.9303
lwrist -7.86993
lhand -14.9415 2.04053
lfingers 7.12502
lthumb 11.2212 31.7204
rfemur -3.31459 -7.81763 27.8164
rtibia 30.1324
rfoot -17.0087 -1.45534
rtoes 22.8528
lfemur -71.5235 0.0973592 -16.1884
ltibia 84.7114
lfoot 31.3032 -24.5876
ltoes 15.2452
1161
root 1.81002 17.806 -4.57177 -5.54823 9.28806 -2.67499
lowerback 11.2649 2.64644 5.25751
upperback -0.559843 4.39597 2.34985
thorax -6.71073 2.00929 -1.20735
lowerneck -12.7954 -7.05844 -7.49339
upperneck 24.9962 -9.20801 3.90466
head 10.6811 -4.46214 1.43031
rclavicle -5.58585e-014 -9.54166e-015
rhumerus -33.6493 3.35415 -57.9583
rradius 54.2197
rwrist -1.29371
rhand -8.3829 -7.48017
rfingers 7.12502
rthumb 17.5404 -36.7089
lclavicle -5.58585e-014 -9.54166e-015
lhumerus -45.9037 12.598 58.8087
lradius 67.8019
lwrist -7.95601
lhand -14.8903 2.04616
lfingers 7.12502
lthumb 11.2705 31.7234
rfemur -3.60936 -7.71087 27.7708
rtibia 30.242
rfoot -16.9899 -1.26839
rtoes 22.8899
lfemur -71.0496 -0.049169 -15.7171
ltibia 86.1243
lfoot 30.2282 -24.5976
ltoes 14.7123
1162
root 1.82535 17.8089 -4.58379 -5.35225 9.07989 -2.67204
lowerback 11.3025 2.60151 5.20814
upperback -0.599202 4.33776 2.39381
thorax -6.78437 1.98066 -1.12777
lowerneck -12.8823 -6.97101 -7.37803
upperneck 25.0121 -9.08624 3.82984
head 10.6853 -4.40318 1.39964
rclavicle 6.7388e-014 2.46493e-014
rhumerus -33.4655 3.67217 -58.0894
rradius 54.9362
rwrist -1.4768
rhand -8.6149 -7.0905
rfingers 7.12502
rthumb 17.3171 -36.339
lclavicle 6.7388e-014 2.46493e-014
lhumerus -45.9147 12.5006 58.7838
lradius 67.6748
lwrist -8.04913
lhand -14.8273 2.02053
lfingers 7.12502
lthumb 11.3313 31.6944
rfemur -3.89796 -7.60079 27.7373
rtibia 30.3357
rfoot -16.9715 -1.11341
rtoes 22.9197
lfemur -70.5338 -0.165179 -15.2617
ltibia 87.4832
lfoot 28.9406 -24.4856
ltoes 13.9909
1163
root 1.83955 17.8118 -4.59544 -5.15511 8.90326 -2.66975
lowerback 11.3299 2.54755 5.14339
upperback -0.631796 4.26424 2.43643
thorax -6.84661 1.94564 -1.03768
lowerneck -12.9741 -6.88642 -7.26349
upperneck 25.0242 -8.9715 3.76779
head 10.6905 -4.34599 1.37246
rclavicle 1.76918e-014 2.14687e-014
rhumerus -33.3273 3.94795 -58.2095
rradius 55.6694
rwrist -1.65493
rhand -8.87295 -6.74132
rfingers 7.12502
rthumb 17.0687 -36.0115
lclavicle 1.76918e-014 2.14687e-014
lhumerus -45.8745 12.3708 58.7924
lradius 67.5475
lwrist -8.153
lhand -14.7675 1.96356
lfingers 7.12502
lthumb 11.389 31.6343
rfemur -4.18582 -7.49018 27.7097
rtibia 30.4258
rfoot -16.9599 -0.985356
rtoes 22.9414
lfemur -69.9723 -0.250881 -14.8276
ltibia 88.7779
lfoot 27.4727 -24.2223
ltoes 13.1127
1164
root 1.85276 17.8144 -4.60668 -4.95509 8.75688 -2.66322
lowerback 11.3459 2.48573 5.06168
upperback -0.657758 4.17648 2.47547
thorax -6.8965 1.90478 -0.938653
lowerneck -13.0681 -6.80474 -7.14949
upperneck 25.0302 -8.86398 3.71818
head 10.6952 -4.29074 1.34871
rclavicle 3.75579e-014 1.66979e-014
rhumerus -33.2365 4.18296 -58.3202
rradius 56.4149
rwrist -1.82378
rhand -9.16202 -6.43091
rfingers 7.12502
rthumb 16.7905 -35.7249
lclavicle 3.75579e-014 1.66979e-014
lhumerus -45.7838 12.2072 58.8332
lradius 67.4187
lwrist -8.27098
lhand -14.7226 1.87634
lfingers 7.12502
lthumb 11.4323 31.5447
rfemur -4.47853 -7.3833 27.681
rtibia 30.5223
rfoot -16.9599 -0.876285
rtoes 22.9553
lfemur -69.3633 -0.3066 -14.4208
ltibia 89.997
lfoot 25.8735 -23.7936
ltoes 12.1192
1165
root 1.86516 17.8166 -4.61746 -4.75005 8.63876 -2.6475
lowerback 11.3486 2.41737 4.96122
upperback -0.677631 4.07575 2.50895
thorax -6.93344 1.85873 -0.831931
lowerneck -13.1616 -6.72591 -7.03598
upperneck 25.0283 -8.7635 3.68027
head 10.6982 -4.23746 1.32825
rclavicle 7.09413e-015 -1.51076e-014
rhumerus -33.1936 4.37993 -58.423
rradius 57.1666
rwrist -1.97895
rhand -9.48494 -6.15511
rfingers 7.12502
rthumb 16.4796 -35.4752
lclavicle 7.09413e-015 -1.51076e-014
lhumerus -45.6447 12.0088 58.9049
lradius 67.2873
lwrist -8.40448
lhand -14.7005 1.7629
lfingers 7.12502
lthumb 11.4536 31.43
rfemur -4.78051 -7.2853 27.6439
rtibia 30.6319
rfoot -16.9738 -0.777411
rtoes 22.9618
lfemur -68.7065 -0.332983 -14.0469
ltibia 91.1281
lfoot 24.201 -23.2056
ltoes 11.0507
1166
root 1.87688 17.8185 -4.62777 -4.53724 8.54709 -2.61892
lowerback 11.3367 2.34345 4.841
upperback -0.69281 3.96312 2.53554
thorax -6.95781 1.80796 -0.718542
lowerneck -13.2516 -6.64967 -6.92308
upperneck 25.0175 -8.66948 3.6528
head 10.6983 -4.1861 1.31086
rclavicle -4.19436e-014 -2.94201e-014
rhumerus -33.1978 4.54298 -58.5184
rradius 57.917
rwrist -2.11758
rhand -9.84175 -5.91093
rfingers 7.12502
rthumb 16.136 -35.2592
lclavicle -4.19436e-014 -2.94201e-014
lhumerus -45.4608 11.7757 59.0053
lradius 67.153
lwrist -8.55239
lhand -14.7037 1.62969
lfingers 7.12502
lthumb 11.4505 31.297
rfemur -5.09524 -7.20192 27.5923
rtibia 30.7569
rfoot -17.002 -0.679495
rtoes 22.9629
lfemur -68.0041 -0.331488 -13.7101
ltibia 92.1594
lfoot 22.5122 -22.4844
ltoes 9.93794
1167
root 1.88805 17.8204 -4.63762 -4.31344 8.48063 -2.57512
lowerback 11.3092 2.2646 4.70084
upperback -0.705276 3.83946 2.55452
thorax -6.97093 1.7528 -0.599334
lowerneck -13.3357 -6.5757 -6.81117
upperneck 24.9972 -8.58107 3.63425
head 10.6947 -4.13654 1.29625
rclavicle -1.56543e-014 -4.77083e-015
rhumerus -33.2473 4.67654 -58.6071
rradius 58.6581
rwrist -2.23821
rhand -10.2265 -5.69707
rfingers 7.12502
rthumb 15.7655 -35.075
lclavicle -1.56543e-014 -4.77083e-015
lhumerus -45.2361 11.5089 59.1328
lradius 67.0159
lwrist -8.71037
lhand -14.7309 1.48667
lfingers 7.12502
lthumb 11.4243 31.1554
rfemur -5.42547 -7.13846 27.5221
rtibia 30.8967
rfoot -17.0434 -0.575392
rtoes 22.9593
lfemur -67.2606 -0.304541 -13.4128
ltibia 93.0798
lfoot 20.8583 -21.6716
ltoes 8.8112
1168
root 1.89874 17.8224 -4.64707 -4.0753 8.43823 -2.515
lowerback 11.2659 2.18124 4.54096
upperback -0.717484 3.70556 2.56594
thorax -6.97517 1.6935 -0.474627
lowerneck -13.4122 -6.5036 -6.70092
upperneck 24.9686 -8.49715 3.62275
head 10.6874 -4.08855 1.28406
rclavicle -2.28478e-014 7.15625e-015
rhumerus -33.3389 4.78506 -58.6887
rradius 59.382
rwrist -2.34228
rhand -10.6278 -5.5146
rfingers 7.12502
rthumb 15.3791 -34.9226
lclavicle -2.28478e-014 7.15625e-015
lhumerus -44.9757 11.21 59.2854
lradius 66.8774
lwrist -8.87038
lhand -14.7768 1.34515
lfingers 7.12502
lthumb 11.38 31.0164
rfemur -5.7735 -7.09821 27.4315
rtibia 31.0485
rfoot -17.0962 -0.460366
rtoes 22.9526
lfemur -66.4826 -0.254903 -13.1556
ltibia 93.8805
lfoot 19.2781 -20.8165
ltoes 7.69894
